# xmcd
#
# Track frame offsets:
#	150
#	12550
#	23137
#	36650
#	51495
#	66777
#	77540
#	90972
#	106095
#	118002
#	129985
#	140005
#	159760
#	171367
#	183367
#	196665
#
# Disc length: 2832
#
# Revision: 1
# Processed by: cddbd v1.5.1PL0 Copyright (c) Steve Scherf et al.
# Submitted via: FreeRIP 2.00 
# Normalized: r0:TDELIM( - )
#
DISCID=ce0b0e10
DTITLE=Various Artist - Country Selects
DYEAR=1900
DGENRE=Country
TTITLE0=Johnny Cash - Folsom Prison Blues
TTITLE1=Willie Nelson - Blue Eyes Crying in the Rain
TTITLE2=Merle Haggard - Big City
TTITLE3=George Jones - He Stopped Laving Her Today
TTITLE4=David Allan Coe - Longhaired Redneck
TTITLE5=George Jones, Tammy Wynette - Near You
TTITLE6=Ray Price - Heartaches By the Number
TTITLE7=Ricky van Shelton - Somebody Lied
TTITLE8=Johnny Paycheck - Take This Job and Shove It
TTITLE9=Tammy Wynette - 'Til I Get It Right
TTITLE10=Johnny Horton - Honky Tonk Man
TTITLE11=Marty Robbins - El Paso
TTITLE12=Roy Orbison - Dream Baby
TTITLE13=Larry Gatlin and The Gatlin Brothers - All the Gold In California
TTITLE14=Charlie Rich - Behind Closed Doors
TTITLE15=Ricky Skaggs - Honey ( Open that Door)
EXTD=Columbia  
EXTT0=
EXTT1=
EXTT2=
EXTT3=
EXTT4=
EXTT5=
EXTT6=
EXTT7=
EXTT8=
EXTT9=
EXTT10=
EXTT11=
EXTT12=
EXTT13=
EXTT14=
EXTT15=
PLAYORDER=
